<svg width="22" height="22" viewBox="0 0 22 22" fill="none" xmlns="http://www.w3.org/2000/svg">
<path d="M11 1C5.47715 1 1 5.47715 1 11C1 16.5228 5.47715 21 11 21C16.5228 21 21 16.5228 21 11C21 5.47715 16.5228 1 11 1Z" stroke="#713488" stroke-linecap="round" stroke-linejoin="round"/>
<path d="M3.27148 17.3457C3.27148 17.3457 5.5005 14.5 11.0005 14.5C16.5005 14.5 18.7296 17.3457 18.7296 17.3457" stroke="#713488" stroke-linecap="round" stroke-linejoin="round"/>
<path d="M11 11C12.6569 11 14 9.6569 14 8C14 6.34315 12.6569 5 11 5C9.3431 5 8 6.34315 8 8C8 9.6569 9.3431 11 11 11Z" stroke="#713488" stroke-linecap="round" stroke-linejoin="round"/>
</svg>
