<svg width="360" height="360" version="1.1" xmlns="http://www.w3.org/2000/svg" desc="Created with imagetracer.js version 1.2.6" ><path fill="rgb(255,255,255)" stroke="rgb(255,255,255)" stroke-width="1" opacity="0.8274509803921568" d="M 77.5 57 L 282.5 57 Q 299.1 59.9 308 70.5 L 315 80.5 L 319 94.5 L 319 250 L 332.5 250 L 333 251.5 L 334 252.5 L 334 282.5 Q 330.9 293.4 322.5 299 L 312.5 303 L 47.5 303 Q 35.6 300.4 30 291.5 L 26 282.5 L 26 252.5 L 27 250 L 40.5 250 L 41 249.5 L 41 94.5 Q 44.9 73.9 59.5 64 Q 66.8 58.8 77.5 57 Z M 80 67 Q 70 69 64 74 Q 53 81 51 96 L 51 250 L 309 250 L 309 96 L 307 88 L 303 81 Q 296 70 281 67 L 80 67 Z M 36 260 L 36 282 L 38 286 Q 42 291 50 293 L 311 293 L 318 290 L 324 282 L 324 261 L 324 260 L 234 260 L 223 277 L 222 278 L 139 278 L 128 262 L 127 260 L 36 260 Z M 140 260 L 142 266 L 145 268 L 216 268 L 221 261 L 140 260 Z " /><path fill="rgb(255,255,255)" stroke="rgb(255,255,255)" stroke-width="1" opacity="0.8274509803921568" d="M 176.5 102 L 199.5 102 L 210.5 104 L 225.5 110 L 236.5 105 L 250.5 102 L 274.5 102 L 294.5 107 L 302 112.5 L 302 210.5 L 298.5 215 L 269.5 209 L 241.5 209 L 227.5 213 L 222.5 213 L 209.5 209 L 192.5 208 L 191.5 209 L 174.5 210 L 156.5 215 L 151.5 215 L 149 212.5 L 149 112.5 L 151.5 109 L 162.5 105 L 176.5 102 Z M 179 112 L 169 114 L 162 117 L 159 118 L 159 203 L 180 199 L 211 199 L 218 201 L 220 201 L 220 118 L 199 112 L 179 112 Z M 253 112 L 232 118 L 230 120 L 230 201 L 241 199 L 272 199 L 290 203 L 292 203 L 292 117 L 273 112 L 253 112 Z " /><path fill="rgb(255,255,255)" stroke="rgb(255,255,255)" stroke-width="1" opacity="0.8274509803921568" d="M 92.5 118 L 104.5 118 L 112.5 120 Q 123.5 124 130 132.5 L 138 147.5 L 139 164.5 Q 136 179.5 126.5 188 Q 116.5 199 95.5 199 L 85.5 197 L 75.5 192 L 66 182.5 Q 57.5 173 58 154.5 L 63 138.5 L 71.5 128 Q 79.2 120.2 92.5 118 Z M 95 128 L 82 133 Q 70 140 68 156 L 69 167 L 74 177 L 86 186 L 97 189 L 110 187 L 117 183 Q 126 176 129 163 L 128 150 L 121 138 Q 113 128 95 128 Z " /><path fill="rgb(255,255,255)" stroke="rgb(255,255,255)" stroke-width="1" opacity="0.8274509803921568" d="M 183.5 119 L 201.5 120 Q 212.1 122.4 219 128.5 Q 220.3 134.8 216.5 136 L 212.5 136 L 198.5 130 L 184.5 129 L 173.5 132 L 167.5 136 L 162.5 136 Q 158.8 134.8 160 128.5 L 168.5 123 L 183.5 119 Z " /><path fill="rgb(255,255,255)" stroke="rgb(255,255,255)" stroke-width="1" opacity="0.8274509803921568" d="M 255.5 119 L 273.5 120 L 287.5 126 L 291 129.5 Q 291.6 134.6 288.5 136 L 283.5 136 Q 278.7 131.3 270.5 130 L 256.5 129 L 245.5 132 L 238.5 136 L 233.5 136 Q 230.4 134.6 231 129.5 Q 235.2 124.2 242.5 122 L 255.5 119 Z " /><path fill="rgb(255,255,255)" stroke="rgb(255,255,255)" stroke-width="1" opacity="0.8274509803921568" d="M 89.5 136 Q 95.5 135 97.5 138 L 120 156.5 L 120 160.5 L 115.5 165 L 94.5 181 L 89.5 181 L 87 177.5 L 87 138.5 L 89.5 136 Z M 98 151 L 98 166 L 107 159 L 98 151 Z " /><path fill="rgb(255,255,255)" stroke="rgb(255,255,255)" stroke-width="1" opacity="0.8274509803921568" d="M 179.5 140 L 199.5 140 L 218 147 Q 219.6 149.1 219 154.5 L 213.5 157 Q 206.6 151.9 196.5 150 L 181.5 150 L 172.5 153 L 166.5 157 L 163.5 157 Q 159 156 160 149.5 Q 167.2 142.2 179.5 140 Z " /><path fill="rgb(255,255,255)" stroke="rgb(255,255,255)" stroke-width="1" opacity="0.8274509803921568" d="M 251.5 140 Q 277.8 137.2 290 148.5 L 291 152.5 L 287.5 157 L 284.5 157 L 280.5 154 L 268.5 150 L 253.5 150 L 235.5 157 L 232 154.5 L 231 150.5 L 233.5 147 L 251.5 140 Z " /><path fill="rgb(255,255,255)" stroke="rgb(255,255,255)" stroke-width="1" opacity="0.8274509803921568" d="M 182.5 160 Q 207.1 158.4 219 169.5 Q 220.3 175.8 216.5 177 L 212.5 177 L 199.5 171 L 184.5 170 L 173.5 173 L 166.5 177 L 162.5 177 Q 158.8 175.8 160 169.5 L 170.5 163 L 182.5 160 Z " /><path fill="rgb(255,255,255)" stroke="rgb(255,255,255)" stroke-width="1" opacity="0.8274509803921568" d="M 254.5 160 Q 279.9 158.1 291 170.5 Q 291.8 176.3 287.5 177 L 283.5 177 L 271.5 171 L 256.5 170 L 245.5 173 L 238.5 177 L 233.5 177 Q 230.4 175.6 231 170.5 L 232 168 L 242.5 163 L 254.5 160 Z " /><path fill="rgb(255,255,255)" stroke="rgb(255,255,255)" stroke-width="1" opacity="0.8274509803921568" d="M 188.5 180 L 203.5 182 L 219 189.5 Q 220.5 195.5 217.5 197 L 213.5 198 Q 207.1 192.9 197.5 191 L 181.5 191 L 163.5 198 Q 159 197 160 190.5 L 169.5 184 L 179.5 181 L 187.5 181 L 188.5 180 Z " /><path fill="rgb(255,255,255)" stroke="rgb(255,255,255)" stroke-width="1" opacity="0.8274509803921568" d="M 259.5 180 L 275.5 182 L 285.5 186 L 290 189.5 L 291 193.5 L 288.5 197 L 284.5 198 L 273.5 192 L 262.5 191 L 261.5 190 L 260.5 191 L 249.5 192 L 235.5 198 L 232 195.5 L 231 191.5 L 233.5 188 L 243.5 183 L 259.5 180 Z " /><path fill="rgb(0,0,0)" stroke="rgb(0,0,0)" stroke-width="1" opacity="0" d="M 0 0 L 360 0 L 360 360 L 0 360 L 0 0 Z M 78 57 Q 67 59 60 64 Q 45 74 41 95 L 41 250 L 41 250 L 27 250 L 26 253 L 26 283 L 30 292 Q 36 300 48 303 L 313 303 L 323 299 Q 331 293 334 283 L 334 253 L 333 252 L 333 250 L 319 250 L 319 95 L 315 81 L 308 71 Q 299 60 283 57 L 78 57 Z " /><path fill="rgb(0,0,0)" stroke="rgb(0,0,0)" stroke-width="1" opacity="0" d="M 79.5 67 L 280.5 67 Q 295.8 69.7 303 80.5 L 307 87.5 L 309 95.5 L 309 250 L 51 250 L 51 95.5 Q 53.5 81 63.5 74 Q 69.6 68.6 79.5 67 Z M 177 102 L 163 105 L 152 109 L 149 113 L 149 213 L 152 215 L 157 215 L 175 210 L 192 209 L 193 208 L 210 209 L 223 213 L 228 213 L 242 209 L 270 209 L 299 215 L 302 211 L 302 113 L 295 107 L 275 102 L 251 102 L 237 105 L 226 110 L 211 104 L 200 102 L 177 102 Z M 93 118 Q 79 120 72 128 L 63 139 L 58 155 Q 58 173 66 183 L 76 192 L 86 197 L 96 199 Q 117 199 127 188 Q 136 179 139 165 L 138 148 L 130 133 Q 123 124 113 120 L 105 118 L 93 118 Z " /><path fill="rgb(0,0,0)" stroke="rgb(0,0,0)" stroke-width="1" opacity="0" d="M 178.5 112 L 198.5 112 L 220 118 L 220 200.5 L 217.5 201 L 210.5 199 L 179.5 199 L 159 203 L 159 117.5 L 161.5 117 L 168.5 114 L 178.5 112 Z M 184 119 L 169 123 L 160 129 Q 159 135 163 136 L 168 136 L 174 132 L 185 129 L 199 130 L 213 136 L 217 136 Q 220 135 219 129 Q 212 122 202 120 L 184 119 Z M 180 140 Q 167 142 160 150 Q 159 156 164 157 L 167 157 L 173 153 L 182 150 L 197 150 Q 207 152 214 157 L 219 155 Q 220 149 218 147 L 200 140 L 180 140 Z M 183 160 L 171 163 L 160 170 Q 159 176 163 177 L 167 177 L 174 173 L 185 170 L 200 171 L 213 177 L 217 177 Q 220 176 219 170 Q 207 158 183 160 Z M 189 180 L 188 181 L 180 181 L 170 184 L 160 191 Q 159 197 164 198 L 182 191 L 198 191 Q 207 193 214 198 L 218 197 Q 220 195 219 190 L 204 182 L 189 180 Z " /><path fill="rgb(0,0,0)" stroke="rgb(0,0,0)" stroke-width="1" opacity="0" d="M 252.5 112 L 272.5 112 L 292 117 L 292 202.5 L 289.5 203 L 271.5 199 L 240.5 199 L 230 201 L 230 119.5 L 231.5 118 L 252.5 112 Z M 256 119 L 243 122 Q 235 124 231 130 Q 230 135 234 136 L 239 136 L 246 132 L 257 129 L 271 130 Q 279 131 284 136 L 289 136 Q 292 135 291 130 L 288 126 L 274 120 L 256 119 Z M 252 140 L 234 147 L 231 151 L 232 155 L 236 157 L 254 150 L 269 150 L 281 154 L 285 157 L 288 157 L 291 153 L 290 149 Q 278 137 252 140 Z M 255 160 L 243 163 L 232 168 L 231 171 Q 230 176 234 177 L 239 177 L 246 173 L 257 170 L 272 171 L 284 177 L 288 177 Q 292 176 291 171 Q 280 158 255 160 Z M 260 180 L 244 183 L 234 188 L 231 192 L 232 196 L 236 198 L 250 192 L 261 191 L 262 190 L 263 191 L 274 192 L 285 198 L 289 197 L 291 194 L 290 190 L 286 186 L 276 182 L 260 180 Z " /><path fill="rgb(0,0,0)" stroke="rgb(0,0,0)" stroke-width="1" opacity="0" d="M 94.5 128 Q 112.7 127.8 121 137.5 L 128 149.5 L 129 162.5 Q 126.4 176.4 116.5 183 L 109.5 187 L 96.5 189 L 85.5 186 L 74 176.5 L 69 166.5 L 68 155.5 Q 70.5 140 81.5 133 L 94.5 128 Z M 90 136 L 87 139 L 87 178 L 90 181 L 95 181 L 116 165 L 120 161 L 120 157 L 98 138 Q 96 135 90 136 Z " /><path fill="rgb(0,0,0)" stroke="rgb(0,0,0)" stroke-width="1" opacity="0" d="M 97.5 151 L 107 158.5 L 97.5 166 L 97.5 151 Z " /><path fill="rgb(0,0,0)" stroke="rgb(0,0,0)" stroke-width="1" opacity="0" d="M 36 260 L 126.5 260 L 128 261.5 L 138.5 278 L 221.5 278 L 223 276.5 L 233.5 260 L 323.5 260 L 324 260.5 L 324 281.5 L 317.5 290 L 310.5 293 L 49.5 293 Q 41.8 291.1 38 285.5 L 36 281.5 L 36 260 Z " /><path fill="rgb(0,0,0)" stroke="rgb(0,0,0)" stroke-width="1" opacity="0" d="M 139.5 260 L 221 260.5 L 215.5 268 L 144.5 268 L 142 265.5 L 139.5 260 Z " /></svg>